<?xml version="1.0" encoding="UTF-8"?>
<!-- Created with Inkscape (http://www.inkscape.org/) -->
<svg width="37.795" height="37.795" version="1.1" viewBox="0 0 37.795 37.795"
    xmlns="http://www.w3.org/2000/svg">
    <g transform="translate(-212.76 -210.23)" fill="#5092c1">
        <g transform="translate(-1.9445 -11.667)">
            <path d="m233.6 259.69h-4.6944q-3.3238 0-5.3112-1.9208-1.9703-1.9014-1.9703-5.5878v-2.8521q0-3.4536-1.3535-4.7923-1.3535-1.3581-4.3689-1.3581h-1.1993v-4.7729h1.1993q3.0154 0 4.3689-1.3387 1.3535-1.3581 1.3535-4.8117v-2.8521q0-3.6864 1.9703-5.5878 1.9874-1.9208 5.3112-1.9208h4.6944v4.3461h-1.9532q-1.028 0-1.8675 0.17463-0.82239 0.17462-1.3878 0.65967-0.58251 0.50445-0.87377 1.4746-0.29126 0.95071-0.29126 2.4641v2.1148q0 2.7163-1.3535 4.5401-1.3364 1.8238-3.8206 2.8909v0.46565q2.4843 1.0671 3.8206 2.8909 1.3535 1.8238 1.3535 4.5401v2.1148q0 1.5134 0.29126 2.4641 0.29126 0.97011 0.87377 1.4746 0.54826 0.50446 1.3878 0.65968 0.8395 0.17462 1.8675 0.17462h1.9532z" style="white-space:pre"/>
            <path d="m252.5 243.04-18.898 10.974v-5.6749l13.226-7.5534-13.226-7.5534v-5.675l18.898 10.974z" style="white-space:pre"/>
        </g>
        <g>
            <path d="m288.25 229.13q0 6.0726-3.4798 9.6547-3.4798 3.5651-9.6206 3.5651-6.1238 0-9.6036-3.5651-3.4798-3.5822-3.4798-9.6547 0-6.1238 3.4798-9.6718 3.4798-3.5651 9.6036-3.5651 6.1067 0 9.6036 3.5651 3.4969 3.548 3.4969 9.6718zm-8.6824 6.4308q0.95523-1.1599 1.4158-2.7292 0.46057-1.5864 0.46057-3.7186 0-2.2858-0.52879-3.8892-0.52881-1.6034-1.3817-2.5928-0.86995-1.0235-2.0128-1.484-1.1258-0.46057-2.354-0.46057-1.2452 0-2.354 0.44351-1.0917 0.4435-2.0128 1.467-0.85288 0.95524-1.3987 2.644-0.52879 1.6717-0.52879 3.8892 0 2.2687 0.51173 3.8721 0.52879 1.5864 1.3817 2.5928 0.85291 1.0064 1.9958 1.484 1.1429 0.47762 2.4052 0.47762t2.4052-0.47762q1.1429-0.49468 1.9958-1.5182z" style="white-space:pre"/>
            <path d="m316.44 229.15q0 3.548-1.6205 6.3626-1.6205 2.7975-4.0939 4.2986-1.8593 1.1258-4.0768 1.5693-2.2175 0.44351-5.2538 0.44351h-8.9554v-25.399h9.2112q3.1045 0 5.3562 0.52878 2.2516 0.51173 3.7868 1.467 2.6269 1.6034 4.128 4.3327 1.5182 2.7122 1.5182 6.3967zm-6.772-0.0512q0-2.5075-0.92113-4.2815-0.90407-1.7911-2.8828-2.7975-1.0064-0.49467-2.064-0.66525-1.0405-0.18764-3.1557-0.18764h-1.6546v15.898h1.6546q2.3369 0 3.4286-0.2047 1.0917-0.22175 2.1322-0.78465 1.7911-1.0235 2.6269-2.7293 0.83585-1.7228 0.83585-4.2474z" style="white-space:pre"/>
            <path d="m339 241.82h-18.371v-25.399h18.371v4.9126h-11.855v4.3839h11.002v4.9126h-11.002v6.2773h11.855z" style="white-space:pre"/>
            <path d="m366.89 241.82h-8.0342l-7.5907-10.166-1.5352 1.8593v8.3072h-6.5502v-25.399h6.5502v11.497l9.0748-11.497h7.5907l-9.9276 11.753z" style="white-space:pre"/>
        </g>
    </g>
</svg>
