<?xml version="1.0" encoding="UTF-8"?>
<!-- Created with Inkscape (http://www.inkscape.org/) -->
<svg width="155" height="40" version="1.1" viewBox="0 0 155 40" xmlns="http://www.w3.org/2000/svg">
 <g transform="translate(-212.76 -210.23)" fill="#5092c1">
  <g transform="matrix(1.0583 0 0 1.0583 -14.469 -24.611)" stroke-width=".94488">
   <path d="m233.6 259.69h-4.6944q-3.3238 0-5.3112-1.9208-1.9703-1.9014-1.9703-5.5878v-2.8521q0-3.4536-1.3535-4.7923-1.3535-1.3581-4.3689-1.3581h-1.1993v-4.7729h1.1993q3.0154 0 4.3689-1.3387 1.3535-1.3581 1.3535-4.8117v-2.8521q0-3.6864 1.9703-5.5878 1.9874-1.9208 5.3112-1.9208h4.6944v4.3461h-1.9532q-1.028 0-1.8675 0.17463-0.82239 0.17462-1.3878 0.65967-0.58251 0.50445-0.87377 1.4746-0.29126 0.95071-0.29126 2.4641v2.1148q0 2.7163-1.3535 4.5401-1.3364 1.8238-3.8206 2.8909v0.46565q2.4843 1.0671 3.8206 2.8909 1.3535 1.8238 1.3535 4.5401v2.1148q0 1.5134 0.29126 2.4641 0.29126 0.97011 0.87377 1.4746 0.54826 0.50446 1.3878 0.65968 0.8395 0.17462 1.8675 0.17462h1.9532z" style="white-space:pre"/>
   <path d="m252.5 243.04-18.898 10.974v-5.6749l13.226-7.5534-13.226-7.5534v-5.675l18.898 10.974z" style="white-space:pre"/>
  </g>
  <g transform="translate(.69531 1.3307)">
   <path d="m288.29 228.9q0 5.9678-3.4854 9.4881-3.4854 3.5036-9.6361 3.5036-6.1336 0-9.619-3.5036-3.4854-3.5203-3.4854-9.4881 0-6.0181 3.4854-9.5048 3.4854-3.5036 9.619-3.5036 6.1165 0 9.619 3.5036 3.5025 3.4868 3.5025 9.5048zm-8.6964 6.3198q0.95677-1.1399 1.4181-2.6821 0.46132-1.559 0.46132-3.6544 0-2.2463-0.52965-3.822-0.52965-1.5758-1.3839-2.548-0.87135-1.0058-2.0161-1.4584-1.1276-0.45262-2.3578-0.45262-1.2472 0-2.3578 0.43585-1.0935 0.43585-2.0161 1.4416-0.85425 0.93875-1.401 2.5983-0.52963 1.6428-0.52963 3.822 0 2.2295 0.51254 3.8053 0.52965 1.559 1.3839 2.548 0.85428 0.98905 1.999 1.4584 1.1447 0.46938 2.409 0.46938 1.2643 0 2.409-0.46938 1.1447-0.48614 1.999-1.492z" style="white-space:pre"/>
   <path d="m316.52 228.92q0 3.4868-1.6231 6.2527-1.6231 2.7492-4.1005 4.2244-1.8623 1.1064-4.0834 1.5422-2.2211 0.43584-5.2623 0.43584h-8.9698v-24.961h9.2261q3.1095 0 5.3648 0.51964 2.2553 0.5029 3.7929 1.4417 2.6311 1.5758 4.1346 4.2579 1.5206 2.6654 1.5206 6.2862zm-6.7828-0.0503q0-2.4642-0.92261-4.2076-0.90552-1.7602-2.8874-2.7492-1.008-0.48612-2.0673-0.65377-1.0422-0.1844-3.1608-0.1844h-1.6573v15.623h1.6573q2.3407 0 3.4342-0.20116 1.0934-0.21792 2.1357-0.77111 1.794-1.0058 2.6311-2.6821 0.83719-1.6931 0.83719-4.1741z" style="white-space:pre"/>
   <path d="m339.12 241.37h-18.401v-24.961h18.401v4.8278h-11.874v4.3082h11.02v4.8278h-11.02v6.1689h11.874z" style="white-space:pre"/>
   <path d="m367.06 241.37h-8.0472l-7.6029-9.991-1.5377 1.8272v8.1638h-6.5607v-24.961h6.5607v11.298l9.0894-11.298h7.6029l-9.9436 11.55z" style="white-space:pre"/>
  </g>
 </g>
</svg>
