<?xml version="1.0" encoding="UTF-8" standalone="no"?>
<!-- Created with Inkscape (http://www.inkscape.org/) -->

<svg
   width="155"
   height="40"
   viewBox="0 0 155.00001 40"
   version="1.1"
   id="svg5"
   inkscape:version="1.1.1 (3bf5ae0d25, 2021-09-20)"
   sodipodi:docname="odek.svg"
   xmlns:inkscape="http://www.inkscape.org/namespaces/inkscape"
   xmlns:sodipodi="http://sodipodi.sourceforge.net/DTD/sodipodi-0.dtd"
   xmlns="http://www.w3.org/2000/svg"
   xmlns:svg="http://www.w3.org/2000/svg">
  <sodipodi:namedview
     id="namedview7"
     pagecolor="#ffffff"
     bordercolor="#111111"
     borderopacity="1"
     inkscape:pageshadow="0"
     inkscape:pageopacity="0"
     inkscape:pagecheckerboard="1"
     inkscape:document-units="px"
     showgrid="false"
     inkscape:zoom="4"
     inkscape:cx="122.875"
     inkscape:cy="102.125"
     inkscape:window-width="2560"
     inkscape:window-height="1377"
     inkscape:window-x="1072"
     inkscape:window-y="1072"
     inkscape:window-maximized="1"
     inkscape:current-layer="layer1"
     units="px"
     width="400px"
     fit-margin-top="0"
     fit-margin-left="0"
     fit-margin-right="0"
     fit-margin-bottom="0" />
  <defs
     id="defs2">
    <rect
       x="388.73837"
       y="96.054535"
       width="135.22972"
       height="151.42715"
       id="rect16887" />
    <rect
       x="162.72769"
       y="177.79506"
       width="486.67633"
       height="162.72769"
       id="rect2726" />
    <rect
       x="209.65717"
       y="155.56349"
       width="242.36086"
       height="65.937706"
       id="rect40086-7" />
  </defs>
  <g
     inkscape:label="Layer 1"
     inkscape:groupmode="layer"
     id="layer1"
     transform="translate(-212.75881,-210.22502)">
    <g
       id="g50984"
       transform="matrix(1.0583332,0,0,1.0583332,-14.46888,-24.610951)"
       style="stroke-width:0.944882">
      <path
         d="m 233.601,259.68756 h -4.69443 q -3.32379,0 -5.31121,-1.92081 -1.97029,-1.9014 -1.97029,-5.5878 v -2.85211 q 0,-3.45357 -1.3535,-4.79232 -1.35351,-1.35814 -4.36891,-1.35814 h -1.1993 v -4.77292 h 1.1993 q 3.0154,0 4.36891,-1.33874 1.3535,-1.35814 1.3535,-4.81172 v -2.85211 q 0,-3.6864 1.97029,-5.58779 1.98742,-1.92082 5.31121,-1.92082 h 4.69443 v 4.34607 h -1.95316 q -1.02798,0 -1.86748,0.17463 -0.82239,0.17462 -1.38779,0.65967 -0.58251,0.50445 -0.87377,1.47455 -0.29126,0.95071 -0.29126,2.46407 v 2.11482 q 0,2.7163 -1.35351,4.5401 -1.33636,1.82379 -3.82064,2.89091 v 0.46565 q 2.48428,1.06711 3.82064,2.89091 1.35351,1.82379 1.35351,4.54009 v 2.11482 q 0,1.51337 0.29126,2.46407 0.29126,0.97011 0.87377,1.47455 0.54826,0.50446 1.38779,0.65968 0.8395,0.17462 1.86748,0.17462 h 1.95316 z"
         style="font-weight:bold;font-size:42.6667px;line-height:1.25;-inkscape-font-specification:'sans-serif Bold';letter-spacing:-0.05px;word-spacing:0px;white-space:pre;fill:#5092c1;stroke-width:0.944882"
         id="path50298" />
      <path
         d="M 252.49864,243.04408 233.601,254.01826 v -5.67493 l 13.22552,-7.55341 -13.22552,-7.5534 v -5.67495 l 18.89764,10.97419 z"
         style="font-weight:bold;font-size:42.6667px;line-height:1.25;-inkscape-font-specification:'sans-serif Bold';letter-spacing:-0.05px;word-spacing:0px;white-space:pre;fill:#5092c1;stroke-width:0.944882"
         id="path50300" />
    </g>
    <g
       id="g51060"
       transform="translate(0.6953064,1.3307156)">
      <path
         d="m 288.28937,228.90268 q 0,5.96776 -3.48539,9.48807 -3.48539,3.50355 -9.63608,3.50355 -6.13361,0 -9.619,-3.50355 -3.48539,-3.52031 -3.48539,-9.48807 0,-6.01806 3.48539,-9.50483 3.48539,-3.50355 9.619,-3.50355 6.11652,0 9.61899,3.50355 3.50248,3.48677 3.50248,9.50483 z m -8.69639,6.31979 q 0.95677,-1.13991 1.41806,-2.68214 0.46132,-1.55899 0.46132,-3.65441 0,-2.24629 -0.52965,-3.82204 -0.52965,-1.57577 -1.3839,-2.54805 -0.87135,-1.0058 -2.01607,-1.4584 -1.12761,-0.45262 -2.35775,-0.45262 -1.24723,0 -2.35777,0.43585 -1.09346,0.43585 -2.01607,1.44165 -0.85425,0.93875 -1.40098,2.59832 -0.52963,1.64282 -0.52963,3.82205 0,2.22953 0.51254,3.80528 0.52965,1.559 1.3839,2.54803 0.85428,0.98905 1.99899,1.45843 1.1447,0.46938 2.40902,0.46938 1.2643,0 2.40901,-0.46938 1.14471,-0.48614 1.99898,-1.49195 z"
         style="font-weight:bold;font-size:42.6667px;line-height:1.25;-inkscape-font-specification:'sans-serif Bold';letter-spacing:-0.05px;word-spacing:0px;white-space:pre;fill:#5092c1;stroke-width:1"
         id="path50302" />
      <path
         d="m 316.52362,228.91944 q 0,3.48678 -1.6231,6.25274 -1.62309,2.74919 -4.10046,4.22437 -1.8623,1.10639 -4.08338,1.54224 -2.22107,0.43584 -5.26226,0.43584 h -8.96976 v -24.96064 h 9.22606 q 3.10951,0 5.36476,0.51964 2.25526,0.5029 3.79294,1.44166 2.63111,1.57576 4.13462,4.2579 1.52058,2.66537 1.52058,6.28625 z m -6.78283,-0.0503 q 0,-2.4642 -0.92261,-4.2076 -0.90552,-1.76015 -2.8874,-2.7492 -1.00805,-0.48612 -2.06733,-0.65377 -1.0422,-0.1844 -3.16078,-0.1844 h -1.65726 v 15.62347 h 1.65726 q 2.34068,0 3.43415,-0.20116 1.09345,-0.21792 2.13566,-0.77111 1.79395,-1.0058 2.63112,-2.68214 0.83719,-1.69311 0.83719,-4.17409 z"
         style="font-weight:bold;font-size:42.6667px;line-height:1.25;-inkscape-font-specification:'sans-serif Bold';letter-spacing:-0.05px;word-spacing:0px;white-space:pre;fill:#5092c1;stroke-width:1"
         id="path50304" />
      <path
         d="m 339.11973,241.37463 h -18.40082 v -24.96064 h 18.40082 v 4.82782 H 327.24548 V 225.55 h 11.01998 v 4.82785 h -11.01998 v 6.16893 h 11.87425 z"
         style="font-weight:bold;font-size:42.6667px;line-height:1.25;-inkscape-font-specification:'sans-serif Bold';letter-spacing:-0.05px;word-spacing:0px;white-space:pre;fill:#5092c1;stroke-width:1"
         id="path50306" />
      <path
         d="m 367.06351,241.37463 h -8.04715 l -7.60293,-9.99097 -1.53768,1.82721 v 8.16376 h -6.56073 v -24.96064 h 6.56073 v 11.2985 l 9.08936,-11.2985 h 7.60293 l -9.94362,11.54994 z"
         style="font-weight:bold;font-size:42.6667px;line-height:1.25;-inkscape-font-specification:'sans-serif Bold';letter-spacing:-0.05px;word-spacing:0px;white-space:pre;fill:#5092c1;stroke-width:1"
         id="path50308" />
    </g>
  </g>
</svg>
