<?xml version="1.0" encoding="UTF-8" standalone="no"?>
<svg
   data-name="Layer 1"
   viewBox="0 0 1200 60"
   preserveAspectRatio="none"
   version="1.1"
   id="svg4"
   sodipodi:docname="bg.svg"
   width="1200"
   height="60"
   inkscape:version="1.1.1 (3bf5ae0d25, 2021-09-20)"
   xmlns:inkscape="http://www.inkscape.org/namespaces/inkscape"
   xmlns:sodipodi="http://sodipodi.sourceforge.net/DTD/sodipodi-0.dtd"
   xmlns="http://www.w3.org/2000/svg"
   xmlns:svg="http://www.w3.org/2000/svg">
  <defs
     id="defs8" />
  <sodipodi:namedview
     id="namedview6"
     pagecolor="#ffffff"
     bordercolor="#111111"
     borderopacity="1"
     inkscape:pageshadow="0"
     inkscape:pageopacity="0"
     inkscape:pagecheckerboard="1"
     showgrid="false"
     fit-margin-top="0"
     fit-margin-left="0"
     fit-margin-right="0"
     fit-margin-bottom="0"
     inkscape:zoom="1.4142136"
     inkscape:cx="517.24861"
     inkscape:cy="-194.80792"
     inkscape:window-width="2560"
     inkscape:window-height="1377"
     inkscape:window-x="1072"
     inkscape:window-y="1432"
     inkscape:window-maximized="1"
     inkscape:current-layer="svg4" />
  <path
     d="M 1220,29.73833 V 0 H -20 V 37.875952 C 26.020383,54.023649 79.557403,60.77598 130.12926,59.929601 210.61218,58.582625 296.85628,7.822943 367.7482,16.856665 520.67612,36.344195 446.65676,99.056879 696.38459,16.929698 752.27272,-1.4500497 815.42233,86.987906 945.26604,35.556151 1043.7762,-3.4642067 1051.526,48.618078 1104.7882,46.588413 1143.5717,45.110489 1159.2032,40.71835 1220,29.73833 Z"
     class="shape-fill"
     id="path1"
     style="display:inline;fill:#5092c1;fill-opacity:1;stroke-width:0.999996"
     sodipodi:nodetypes="ccccasssac" />
  <path
     d="M 1220,35.685582 V 0 H -20 c 0,0 -6.567187,21.72741 0,27.959071 C 20.808323,66.682445 88.892661,12.142715 143.72024,9.5777427 274.12385,3.4771348 295.4616,120.86629 535.25613,16.762442 c 88.71212,-38.513278 212.51012,84.860368 318.32386,9.155378 66.20744,-47.368453 162.61541,33.111422 244.77901,31.157073 41.0956,-0.977505 101.4862,0.005 121.641,-21.389311 z"
     class="shape-fill"
     id="path2"
     style="display:inline;fill:#00ff00;fill-opacity:1;stroke-width:0.999994"
     sodipodi:nodetypes="cccaassac" />
</svg>
